<svg xmlns="http://www.w3.org/2000/svg" viewBox="0 0 24 24" id="Photography-Retouch-Wand--Streamline-Pixel" height="24" width="24">
  <desc>
    Photography Retouch Wand Streamline Icon: https://streamlinehq.com
  </desc>
  <title>photography-retouch-wand</title>
  <g>
    <path d="M22.86 9.1425H24v5.715h-1.1400000000000001Z" fill="#000000" stroke-width="0.75"></path>
    <path d="M21.72 14.857499999999998h1.1400000000000001v2.2874999999999996h-1.1400000000000001Z" fill="#000000" stroke-width="0.75"></path>
    <path d="M21.72 6.862500000000001h1.1400000000000001v2.2800000000000002h-1.1400000000000001Z" fill="#000000" stroke-width="0.75"></path>
    <path d="M20.572499999999998 17.145h1.1475v2.2874999999999996h-1.1475Z" fill="#000000" stroke-width="0.75"></path>
    <path d="M20.572499999999998 4.574999999999999h1.1475v2.2874999999999996h-1.1475Z" fill="#000000" stroke-width="0.75"></path>
    <path d="M19.4325 19.4325h1.1400000000000001v1.1400000000000001h-1.1400000000000001Z" fill="#000000" stroke-width="0.75"></path>
    <path d="m20.572499999999998 11.43 -1.1400000000000001 0 0 1.1475 -1.1400000000000001 0 0 1.1400000000000001 1.1400000000000001 0 0 1.1400000000000001 1.1400000000000001 0 0 -1.1400000000000001 1.1475 0 0 -1.1400000000000001 -1.1475 0 0 -1.1475z" fill="#000000" stroke-width="0.75"></path>
    <path d="M19.4325 3.435h1.1400000000000001V4.574999999999999h-1.1400000000000001Z" fill="#000000" stroke-width="0.75"></path>
    <path d="M18.2925 8.0025h1.1400000000000001v1.1400000000000001h-1.1400000000000001Z" fill="#000000" stroke-width="0.75"></path>
    <path d="M17.145 20.572499999999998h2.2874999999999996v1.1475h-2.2874999999999996Z" fill="#000000" stroke-width="0.75"></path>
    <path d="M17.145 16.005h1.1475v1.1400000000000001h-1.1475Z" fill="#000000" stroke-width="0.75"></path>
    <path d="M17.145 2.2874999999999996h2.2874999999999996v1.1475h-2.2874999999999996Z" fill="#000000" stroke-width="0.75"></path>
    <path d="M16.005 4.574999999999999h1.1400000000000001v1.1400000000000001h-1.1400000000000001Z" fill="#000000" stroke-width="0.75"></path>
    <path d="M14.857499999999998 21.72h2.2874999999999996v1.1400000000000001h-2.2874999999999996Z" fill="#000000" stroke-width="0.75"></path>
    <path d="M14.857499999999998 1.1475h2.2874999999999996v1.1400000000000001h-2.2874999999999996Z" fill="#000000" stroke-width="0.75"></path>
    <path d="m14.857499999999998 14.857499999999998 -1.1400000000000001 0 0 1.1475 -1.1400000000000001 0 0 1.1400000000000001 1.1400000000000001 0 0 1.1400000000000001 1.1400000000000001 0 0 -1.1400000000000001 1.1475 0 0 -1.1400000000000001 -1.1475 0 0 -1.1475z" fill="#000000" stroke-width="0.75"></path>
    <path d="M9.149999999999999 22.86h5.7075000000000005V24H9.149999999999999Z" fill="#000000" stroke-width="0.75"></path>
    <path d="M10.290000000000001 14.857499999999998h1.1400000000000001v1.1475h-1.1400000000000001Z" fill="#000000" stroke-width="0.75"></path>
    <path d="m10.290000000000001 13.7175 1.1400000000000001 0 0 1.1400000000000001 1.1475 0 0 -1.1400000000000001 1.1400000000000001 0 0 -1.1400000000000001 1.1400000000000001 0 0 -1.1475 1.1475 0 0 -1.1400000000000001 1.1400000000000001 0 0 -1.1475 -1.1400000000000001 0 0 -1.1400000000000001 -1.1475 0 0 -1.1400000000000001 -1.1400000000000001 0 0 1.1400000000000001 -1.1400000000000001 0 0 1.1400000000000001 -1.1475 0 0 1.1475 -1.1400000000000001 0 0 1.1400000000000001 -1.1400000000000001 0 0 1.1475 1.1400000000000001 0 0 1.1400000000000001z" fill="#000000" stroke-width="0.75"></path>
    <path d="m11.43 2.2874999999999996 -1.1400000000000001 0 0 1.1475 -1.1400000000000001 0 0 1.1400000000000001 1.1400000000000001 0 0 1.1400000000000001 1.1400000000000001 0 0 -1.1400000000000001 1.1475 0 0 -1.1400000000000001 -1.1475 0 0 -1.1475z" fill="#000000" stroke-width="0.75"></path>
    <path d="M9.149999999999999 0h5.7075000000000005v1.1475H9.149999999999999Z" fill="#000000" stroke-width="0.75"></path>
    <path d="M9.149999999999999 16.005h1.1400000000000001v1.1400000000000001H9.149999999999999Z" fill="#000000" stroke-width="0.75"></path>
    <path d="M6.862500000000001 21.72h2.2874999999999996v1.1400000000000001H6.862500000000001Z" fill="#000000" stroke-width="0.75"></path>
    <path d="M8.0025 17.145h1.1475v1.1400000000000001h-1.1475Z" fill="#000000" stroke-width="0.75"></path>
    <path d="M8.0025 12.5775h1.1475v1.1400000000000001h-1.1475Z" fill="#000000" stroke-width="0.75"></path>
    <path d="M8.0025 6.862500000000001h1.1475v1.1400000000000001h-1.1475Z" fill="#000000" stroke-width="0.75"></path>
    <path d="M6.862500000000001 1.1475h2.2874999999999996v1.1400000000000001H6.862500000000001Z" fill="#000000" stroke-width="0.75"></path>
    <path d="M6.862500000000001 18.285h1.1400000000000001v1.1475H6.862500000000001Z" fill="#000000" stroke-width="0.75"></path>
    <path d="M6.862500000000001 13.7175h1.1400000000000001v1.1400000000000001H6.862500000000001Z" fill="#000000" stroke-width="0.75"></path>
    <path d="m5.715 19.4325 0 1.1400000000000001 -1.1400000000000001 0 0 1.1475 2.2874999999999996 0 0 -2.2874999999999996 -1.1475 0z" fill="#000000" stroke-width="0.75"></path>
    <path d="M5.715 14.857499999999998h1.1475v1.1475H5.715Z" fill="#000000" stroke-width="0.75"></path>
    <path d="M4.574999999999999 2.2874999999999996h2.2874999999999996v1.1475H4.574999999999999Z" fill="#000000" stroke-width="0.75"></path>
    <path d="M4.574999999999999 16.005h1.1400000000000001v1.1400000000000001H4.574999999999999Z" fill="#000000" stroke-width="0.75"></path>
    <path d="m5.715 6.862500000000001 -1.1400000000000001 0 0 1.1400000000000001 -1.1400000000000001 0 0 1.1400000000000001 1.1400000000000001 0 0 1.1475 1.1400000000000001 0 0 -1.1475 1.1475 0 0 -1.1400000000000001 -1.1475 0 0 -1.1400000000000001z" fill="#000000" stroke-width="0.75"></path>
    <path d="M3.435 19.4325H4.574999999999999v1.1400000000000001H3.435Z" fill="#000000" stroke-width="0.75"></path>
    <path d="m4.574999999999999 18.285 0 -1.1400000000000001 -2.2874999999999996 0 0 2.2874999999999996 1.1475 0 0 -1.1475 1.1400000000000001 0z" fill="#000000" stroke-width="0.75"></path>
    <path d="M3.435 3.435H4.574999999999999V4.574999999999999H3.435Z" fill="#000000" stroke-width="0.75"></path>
    <path d="M2.2874999999999996 4.574999999999999h1.1475v2.2874999999999996H2.2874999999999996Z" fill="#000000" stroke-width="0.75"></path>
    <path d="M1.1475 14.857499999999998h1.1400000000000001v2.2874999999999996H1.1475Z" fill="#000000" stroke-width="0.75"></path>
    <path d="M1.1475 6.862500000000001h1.1400000000000001v2.2800000000000002H1.1475Z" fill="#000000" stroke-width="0.75"></path>
    <path d="M0 9.1425h1.1475v5.715H0Z" fill="#000000" stroke-width="0.75"></path>
  </g>
</svg>