<svg xmlns="http://www.w3.org/2000/svg" style="display: none;">
    <!-- Content Generation Engine Icon -->
    <symbol id="icon-content-generation" viewBox="0 0 24 24">
        <g>
            <path d="M22.86 9.1425H24v5.715h-1.1400000000000001Z" fill="currentColor"></path>
            <path d="M21.72 14.857499999999998h1.1400000000000001v2.2874999999999996h-1.1400000000000001Z" fill="currentColor"></path>
            <path d="M21.72 6.862500000000001h1.1400000000000001v2.2800000000000002h-1.1400000000000001Z" fill="currentColor"></path>
            <path d="M20.572499999999998 17.145h1.1475v2.2874999999999996h-1.1475Z" fill="currentColor"></path>
            <path d="M20.572499999999998 4.574999999999999h1.1475v2.2874999999999996h-1.1475Z" fill="currentColor"></path>
            <path d="M19.4325 19.4325h1.1400000000000001v1.1400000000000001h-1.1400000000000001Z" fill="currentColor"></path>
            <path d="m20.572499999999998 11.43 -1.1400000000000001 0 0 1.1475 -1.1400000000000001 0 0 1.1400000000000001 1.1400000000000001 0 0 1.1400000000000001 1.1400000000000001 0 0 -1.1400000000000001 1.1475 0 0 -1.1400000000000001 -1.1475 0 0 -1.1475z" fill="currentColor"></path>
            <path d="M19.4325 3.435h1.1400000000000001V4.574999999999999h-1.1400000000000001Z" fill="currentColor"></path>
            <path d="M18.2925 8.0025h1.1400000000000001v1.1400000000000001h-1.1400000000000001Z" fill="currentColor"></path>
            <path d="M17.145 20.572499999999998h2.2874999999999996v1.1475h-2.2874999999999996Z" fill="currentColor"></path>
            <path d="M17.145 16.005h1.1475v1.1400000000000001h-1.1475Z" fill="currentColor"></path>
            <path d="M17.145 2.2874999999999996h2.2874999999999996v1.1475h-2.2874999999999996Z" fill="currentColor"></path>
            <path d="M16.005 4.574999999999999h1.1400000000000001v1.1400000000000001h-1.1400000000000001Z" fill="currentColor"></path>
            <path d="M14.857499999999998 21.72h2.2874999999999996v1.1400000000000001h-2.2874999999999996Z" fill="currentColor"></path>
            <path d="M14.857499999999998 1.1475h2.2874999999999996v1.1400000000000001h-2.2874999999999996Z" fill="currentColor"></path>
            <path d="m14.857499999999998 14.857499999999998 -1.1400000000000001 0 0 1.1475 -1.1400000000000001 0 0 1.1400000000000001 1.1400000000000001 0 0 1.1400000000000001 1.1400000000000001 0 0 -1.1400000000000001 1.1475 0 0 -1.1400000000000001 -1.1475 0 0 -1.1475z" fill="currentColor"></path>
            <path d="M9.149999999999999 22.86h5.7075000000000005V24H9.149999999999999Z" fill="currentColor"></path>
            <path d="M10.290000000000001 14.857499999999998h1.1400000000000001v1.1475h-1.1400000000000001Z" fill="currentColor"></path>
            <path d="m10.290000000000001 13.7175 1.1400000000000001 0 0 1.1400000000000001 1.1475 0 0 -1.1400000000000001 1.1400000000000001 0 0 -1.1400000000000001 1.1400000000000001 0 0 -1.1475 1.1475 0 0 -1.1400000000000001 1.1400000000000001 0 0 -1.1475 -1.1400000000000001 0 0 -1.1400000000000001 -1.1475 0 0 -1.1400000000000001 -1.1400000000000001 0 0 1.1400000000000001 -1.1400000000000001 0 0 1.1400000000000001 -1.1475 0 0 1.1475 -1.1400000000000001 0 0 1.1400000000000001 -1.1400000000000001 0 0 1.1475 1.1400000000000001 0 0 1.1400000000000001z" fill="currentColor"></path>
            <path d="m11.43 2.2874999999999996 -1.1400000000000001 0 0 1.1475 -1.1400000000000001 0 0 1.1400000000000001 1.1400000000000001 0 0 1.1400000000000001 1.1400000000000001 0 0 -1.1400000000000001 1.1475 0 0 -1.1400000000000001 -1.1475 0 0 -1.1475z" fill="currentColor"></path>
            <path d="M9.149999999999999 0h5.7075000000000005v1.1475H9.149999999999999Z" fill="currentColor"></path>
            <path d="M9.149999999999999 16.005h1.1400000000000001v1.1400000000000001H9.149999999999999Z" fill="currentColor"></path>
            <path d="M6.862500000000001 21.72h2.2874999999999996v1.1400000000000001H6.862500000000001Z" fill="currentColor"></path>
            <path d="M8.0025 17.145h1.1475v1.1400000000000001h-1.1475Z" fill="currentColor"></path>
            <path d="M8.0025 12.5775h1.1475v1.1400000000000001h-1.1475Z" fill="currentColor"></path>
            <path d="M8.0025 6.862500000000001h1.1475v1.1400000000000001h-1.1475Z" fill="currentColor"></path>
            <path d="M6.862500000000001 1.1475h2.2874999999999996v1.1400000000000001H6.862500000000001Z" fill="currentColor"></path>
            <path d="M6.862500000000001 18.285h1.1400000000000001v1.1475H6.862500000000001Z" fill="currentColor"></path>
            <path d="M6.862500000000001 13.7175h1.1400000000000001v1.1400000000000001H6.862500000000001Z" fill="currentColor"></path>
            <path d="m5.715 19.4325 0 1.1400000000000001 -1.1400000000000001 0 0 1.1475 2.2874999999999996 0 0 -2.2874999999999996 -1.1475 0z" fill="currentColor"></path>
            <path d="M5.715 14.857499999999998h1.1475v1.1475H5.715Z" fill="currentColor"></path>
            <path d="M4.574999999999999 2.2874999999999996h2.2874999999999996v1.1475H4.574999999999999Z" fill="currentColor"></path>
            <path d="M4.574999999999999 16.005h1.1400000000000001v1.1400000000000001H4.574999999999999Z" fill="currentColor"></path>
            <path d="m5.715 6.862500000000001 -1.1400000000000001 0 0 1.1400000000000001 -1.1400000000000001 0 0 1.1400000000000001 1.1400000000000001 0 0 1.1475 1.1400000000000001 0 0 -1.1475 1.1475 0 0 -1.1400000000000001 -1.1475 0 0 -1.1400000000000001z" fill="currentColor"></path>
            <path d="M3.435 19.4325H4.574999999999999v1.1400000000000001H3.435Z" fill="currentColor"></path>
            <path d="m4.574999999999999 18.285 0 -1.1400000000000001 -2.2874999999999996 0 0 2.2874999999999996 1.1475 0 0 -1.1475 1.1400000000000001 0z" fill="currentColor"></path>
            <path d="M3.435 3.435H4.574999999999999V4.574999999999999H3.435Z" fill="currentColor"></path>
            <path d="M2.2874999999999996 4.574999999999999h1.1475v2.2874999999999996H2.2874999999999996Z" fill="currentColor"></path>
            <path d="M1.1475 14.857499999999998h1.1400000000000001v2.2874999999999996H1.1475Z" fill="currentColor"></path>
            <path d="M1.1475 6.862500000000001h1.1400000000000001v2.2800000000000002H1.1475Z" fill="currentColor"></path>
            <path d="M0 9.1425h1.1475v5.715H0Z" fill="currentColor"></path>
        </g>
    </symbol>

    <!-- Static Image Generation Icon -->
    <symbol id="icon-image-generation" viewBox="0 0 24 24">
        <g>
            <path d="M22.86 19.4325H24v3.4275h-1.1400000000000001Z" fill="currentColor"></path>
            <path d="M22.86 10.290000000000001H24v3.4275h-1.1400000000000001Z" fill="currentColor"></path>
            <path d="M22.86 1.1475H24V4.574999999999999h-1.1400000000000001Z" fill="currentColor"></path>
            <path d="M21.7125 13.7175h1.1475v1.1400000000000001h-1.1475Z" fill="currentColor"></path>
            <path d="M21.7125 9.1425h1.1475v1.1475h-1.1475Z" fill="currentColor"></path>
            <path d="M19.4325 0h3.4275v1.1475h-3.4275Z" fill="currentColor"></path>
            <path d="M19.4325 22.86h3.4275V24h-3.4275Z" fill="currentColor"></path>
            <path d="M20.572499999999998 14.857499999999998h1.1400000000000001v1.1475h-1.1400000000000001Z" fill="currentColor"></path>
            <path d="M20.572499999999998 8.0025h1.1400000000000001v1.1400000000000001h-1.1400000000000001Z" fill="currentColor"></path>
            <path d="M18.285 16.005h2.2874999999999996v1.1400000000000001h-2.2874999999999996Z" fill="currentColor"></path>
            <path d="M18.285 6.862500000000001h2.2874999999999996v1.1400000000000001h-2.2874999999999996Z" fill="currentColor"></path>
            <path d="M16.005 17.145h2.2800000000000002v1.1400000000000001h-2.2800000000000002Z" fill="currentColor"></path>
            <path d="M16.005 5.715h2.2800000000000002v1.1475h-2.2800000000000002Z" fill="currentColor"></path>
            <path d="M16.005 9.1425h-1.1475v-1.1400000000000001h-1.1400000000000001V6.862500000000001h-3.4275v1.1400000000000001h-1.1475v1.1400000000000001h-1.1400000000000001v1.1475H6.862500000000001v3.4275h1.1400000000000001v1.1400000000000001h1.1400000000000001v1.1475h1.1475v1.1400000000000001h3.4275v-1.1400000000000001h1.1400000000000001v-1.1475h1.1475v-1.1400000000000001h1.1400000000000001v-3.4275h-1.1400000000000001Zm-2.2874999999999996 3.435h-1.1475v1.1400000000000001h-1.1400000000000001v-1.1400000000000001h-1.1400000000000001v-1.1475h1.1400000000000001v-1.1400000000000001h1.1400000000000001v1.1400000000000001h1.1475Z" fill="currentColor"></path>
            <path d="M8.0025 18.285h8.0025v1.1475H8.0025Z" fill="currentColor"></path>
            <path d="M8.0025 4.574999999999999h8.0025v1.1400000000000001H8.0025Z" fill="currentColor"></path>
            <path d="M5.715 17.145h2.2874999999999996v1.1400000000000001H5.715Z" fill="currentColor"></path>
            <path d="M5.715 5.715h2.2874999999999996v1.1475H5.715Z" fill="currentColor"></path>
            <path d="M3.4275 16.005h2.2874999999999996v1.1400000000000001H3.4275Z" fill="currentColor"></path>
            <path d="M3.4275 6.862500000000001h2.2874999999999996v1.1400000000000001H3.4275Z" fill="currentColor"></path>
            <path d="M1.1475 22.86H4.574999999999999V24H1.1475Z" fill="currentColor"></path>
            <path d="M2.2874999999999996 14.857499999999998h1.1400000000000001v1.1475H2.2874999999999996Z" fill="currentColor"></path>
            <path d="M2.2874999999999996 8.0025h1.1400000000000001v1.1400000000000001H2.2874999999999996Z" fill="currentColor"></path>
            <path d="M1.1475 0H4.574999999999999v1.1475H1.1475Z" fill="currentColor"></path>
            <path d="M1.1475 13.7175h1.1400000000000001v1.1400000000000001H1.1475Z" fill="currentColor"></path>
            <path d="M1.1475 9.1425h1.1400000000000001v1.1475H1.1475Z" fill="currentColor"></path>
            <path d="M0 19.4325h1.1475v3.4275H0Z" fill="currentColor"></path>
            <path d="M0 10.290000000000001h1.1475v3.4275H0Z" fill="currentColor"></path>
            <path d="M0 1.1475h1.1475V4.574999999999999H0Z" fill="currentColor"></path>
        </g>
    </symbol>

    <!-- Video Generation Icon -->
    <symbol id="icon-video-generation" viewBox="0 0 24 24">
        <g>
            <path d="M18.855 0v1.1400000000000001h2.2874999999999996v1.1475h1.1400000000000001v1.1400000000000001h-2.2800000000000002V2.2874999999999996h-1.1475V1.1400000000000001h-4.5675v1.1475h2.2800000000000002v1.1400000000000001h1.1475v1.1400000000000001h-2.2874999999999996V3.4275h-1.1400000000000001V2.2874999999999996h-4.574999999999999v1.1400000000000001H12v1.1400000000000001h1.1400000000000001v1.1475h-2.2800000000000002V4.5675h-1.1475V3.4275H5.1450000000000005v1.1400000000000001H7.425000000000001v1.1475h1.1475v1.1400000000000001H6.285V5.715H5.1450000000000005V4.5675H0.5700000000000001v18.285h1.1475V14.857499999999998h20.565v7.995h1.1475V10.2825H1.7175v-1.1400000000000001h3.4275v-1.1475h4.5675V6.855h4.574999999999999V5.715h4.5675V4.5675h4.574999999999999V0Zm0 12.57h1.1475v-1.1400000000000001h2.2800000000000002v1.1400000000000001h-1.1400000000000001v1.1400000000000001h-2.2874999999999996Zm-5.715 0h1.1475v-1.1400000000000001h2.2800000000000002v1.1400000000000001h-1.1400000000000001v1.1400000000000001h-2.2874999999999996Zm-5.715 0h1.1475v-1.1400000000000001h2.2874999999999996v1.1400000000000001h-1.1475v1.1400000000000001H7.425000000000001Zm-4.5675 0v-1.1400000000000001h2.2874999999999996v1.1400000000000001H3.9975v1.1400000000000001H1.7175v-1.1400000000000001Zm1.1400000000000001 -4.574999999999999H1.7175V5.715h1.1400000000000001v1.1400000000000001h1.1400000000000001Z" fill="currentColor"></path>
            <path d="M1.7175 22.8525h20.565V24H1.7175Z" fill="currentColor"></path>
            <path d="m20.0025 17.145 -1.1475 0 0 1.1400000000000001 -1.1400000000000001 0 0 -1.1400000000000001 -1.1475 0 0 1.1400000000000001 -1.1400000000000001 0 0 1.1400000000000001 1.1400000000000001 0 0 1.1475 1.1475 0 0 1.1400000000000001 1.1400000000000001 0 0 -1.1400000000000001 1.1475 0 0 -1.1475 1.1400000000000001 0 0 -1.1400000000000001 -1.1400000000000001 0 0 -1.1400000000000001z" fill="currentColor"></path>
            <path d="M5.1450000000000005 19.424999999999997h7.995v1.1475H5.1450000000000005Z" fill="currentColor"></path>
            <path d="M5.1450000000000005 17.145h7.995v1.1400000000000001H5.1450000000000005Z" fill="currentColor"></path>
        </g>
    </symbol>

    <!-- Image Set Generation Icon -->
    <symbol id="icon-image-set" viewBox="0 0 24 24">
        <g>
            <path d="M22.29 2.8575h1.1400000000000001v19.4325h-1.1400000000000001Z" fill="currentColor"></path>
            <path d="M2.8575 22.29h19.4325v1.1400000000000001H2.8575Z" fill="currentColor"></path>
            <path d="M20.0025 1.7175h1.1400000000000001v18.285h-1.1400000000000001Z" fill="currentColor"></path>
            <path d="m17.715 10.86 -2.2874999999999996 0 0 1.1400000000000001 2.2874999999999996 0 0 3.4275 1.1475 0 0 -11.4225 -1.1475 0 0 6.855z" fill="currentColor"></path>
            <path d="m15.4275 14.287500000000001 -1.1400000000000001 0 0 1.1400000000000001 -10.2825 0 0 1.1475 13.71 0 0 -1.1475 -2.2874999999999996 0 0 -1.1400000000000001z" fill="currentColor"></path>
            <path d="M14.287500000000001 12h1.1400000000000001v1.1475h-1.1400000000000001Z" fill="currentColor"></path>
            <path d="M13.1475 13.1475h1.1400000000000001v1.1400000000000001h-1.1400000000000001Z" fill="currentColor"></path>
            <path d="m13.1475 9.712499999999999 2.2800000000000002 0 0 -1.1400000000000001 1.1475 0 0 -2.2874999999999996 -1.1475 0 0 -1.1400000000000001 -2.2800000000000002 0 0 1.1400000000000001 -1.1475 0 0 2.2874999999999996 1.1475 0 0 1.1400000000000001z" fill="currentColor"></path>
            <path d="M12 12h1.1475v1.1475H12Z" fill="currentColor"></path>
            <path d="M10.86 10.86H12V12h-1.1400000000000001Z" fill="currentColor"></path>
            <path d="M9.72 9.712499999999999h1.1400000000000001v1.1475h-1.1400000000000001Z" fill="currentColor"></path>
            <path d="M7.4325 8.5725h2.2874999999999996v1.1400000000000001H7.4325Z" fill="currentColor"></path>
            <path d="M6.285 9.712499999999999h1.1475v1.1475H6.285Z" fill="currentColor"></path>
            <path d="M5.1450000000000005 10.86h1.1400000000000001V12H5.1450000000000005Z" fill="currentColor"></path>
            <path d="M4.005 2.8575h13.71v1.1475H4.005Z" fill="currentColor"></path>
            <path d="m4.005 13.1475 1.1400000000000001 0 0 -1.1475 -1.1400000000000001 0 0 -7.995 -1.1475 0 0 11.4225 1.1475 0 0 -2.2800000000000002z" fill="currentColor"></path>
            <path d="M1.7175 0.5700000000000001h18.285v1.1475H1.7175Z" fill="currentColor"></path>
            <path d="M1.7175 20.0025h18.285v1.1400000000000001H1.7175Z" fill="currentColor"></path>
            <path d="M0.5700000000000001 1.7175h1.1475v18.285H0.5700000000000001Z" fill="currentColor"></path>
        </g>
    </symbol>

    <!-- AI Agents Icon -->
    <symbol id="icon-ai-agents" viewBox="0 0 24 24">
        <g>
            <path d="M22.8525 13.7175H24v2.2800000000000002h-1.1475Z" fill="currentColor"></path>
            <path d="m12.57 15.997499999999999 0 1.1475 4.5675 0 0 3.4275 1.1475 0 0 -3.4275 4.5675 0 0 -1.1475 -10.2825 0z" fill="currentColor"></path>
            <path d="M7.995 9.1425h9.1425v1.1400000000000001H7.995Z" fill="currentColor"></path>
            <path d="m11.4225 20.572499999999998 0 2.2874999999999996 1.1475 0 0 -1.1475 4.5675 0 0 -1.1400000000000001 -5.715 0z" fill="currentColor"></path>
            <path d="m22.8525 13.7175 0 -1.1475 -4.5675 0 0 -2.2874999999999996 -1.1475 0 0 2.2874999999999996 -4.5675 0 0 1.1475 10.2825 0z" fill="currentColor"></path>
            <path d="M11.4225 13.7175h1.1475v2.2800000000000002h-1.1475Z" fill="currentColor"></path>
            <path d="M11.4225 1.1400000000000001h1.1475v2.2874999999999996h-1.1475Z" fill="currentColor"></path>
            <path d="M1.1400000000000001 22.86h10.2825V24H1.1400000000000001Z" fill="currentColor"></path>
            <path d="M6.855 8.0025h1.1400000000000001v1.1400000000000001H6.855Z" fill="currentColor"></path>
            <path d="m6.855 4.5675 4.5675 0 0 -1.1400000000000001 -10.2825 0 0 1.1400000000000001 4.5675 0 0 3.435 1.1475 0 0 -3.435z" fill="currentColor"></path>
            <path d="M1.1400000000000001 19.424999999999997h10.2825v1.1475H1.1400000000000001Z" fill="currentColor"></path>
            <path d="M1.1400000000000001 0h10.2825v1.1400000000000001H1.1400000000000001Z" fill="currentColor"></path>
            <path d="M0 20.572499999999998h1.1400000000000001v2.2874999999999996H0Z" fill="currentColor"></path>
            <path d="M0 1.1400000000000001h1.1400000000000001v2.2874999999999996H0Z" fill="currentColor"></path>
        </g>
    </symbol>
</svg> 