<svg xmlns="http://www.w3.org/2000/svg" viewBox="0 0 24 24" id="Photography-Picture-Polaroid--Streamline-Pixel" height="24" width="24">
  <desc>
    Photography Picture Polaroid Streamline Icon: https://streamlinehq.com
  </desc>
  <title>photography-picture-polaroid</title>
  <g>
    <path d="M22.29 2.8575h1.1400000000000001v19.4325h-1.1400000000000001Z" fill="#000000" stroke-width="0.75"></path>
    <path d="M2.8575 22.29h19.4325v1.1400000000000001H2.8575Z" fill="#000000" stroke-width="0.75"></path>
    <path d="M20.0025 1.7175h1.1400000000000001v18.285h-1.1400000000000001Z" fill="#000000" stroke-width="0.75"></path>
    <path d="m17.715 10.86 -2.2874999999999996 0 0 1.1400000000000001 2.2874999999999996 0 0 3.4275 1.1475 0 0 -11.4225 -1.1475 0 0 6.855z" fill="#000000" stroke-width="0.75"></path>
    <path d="m15.4275 14.287500000000001 -1.1400000000000001 0 0 1.1400000000000001 -10.2825 0 0 1.1475 13.71 0 0 -1.1475 -2.2874999999999996 0 0 -1.1400000000000001z" fill="#000000" stroke-width="0.75"></path>
    <path d="M14.287500000000001 12h1.1400000000000001v1.1475h-1.1400000000000001Z" fill="#000000" stroke-width="0.75"></path>
    <path d="M13.1475 13.1475h1.1400000000000001v1.1400000000000001h-1.1400000000000001Z" fill="#000000" stroke-width="0.75"></path>
    <path d="m13.1475 9.712499999999999 2.2800000000000002 0 0 -1.1400000000000001 1.1475 0 0 -2.2874999999999996 -1.1475 0 0 -1.1400000000000001 -2.2800000000000002 0 0 1.1400000000000001 -1.1475 0 0 2.2874999999999996 1.1475 0 0 1.1400000000000001z" fill="#000000" stroke-width="0.75"></path>
    <path d="M12 12h1.1475v1.1475H12Z" fill="#000000" stroke-width="0.75"></path>
    <path d="M10.86 10.86H12V12h-1.1400000000000001Z" fill="#000000" stroke-width="0.75"></path>
    <path d="M9.72 9.712499999999999h1.1400000000000001v1.1475h-1.1400000000000001Z" fill="#000000" stroke-width="0.75"></path>
    <path d="M7.4325 8.5725h2.2874999999999996v1.1400000000000001H7.4325Z" fill="#000000" stroke-width="0.75"></path>
    <path d="M6.285 9.712499999999999h1.1475v1.1475H6.285Z" fill="#000000" stroke-width="0.75"></path>
    <path d="M5.1450000000000005 10.86h1.1400000000000001V12H5.1450000000000005Z" fill="#000000" stroke-width="0.75"></path>
    <path d="M4.005 2.8575h13.71v1.1475H4.005Z" fill="#000000" stroke-width="0.75"></path>
    <path d="m4.005 13.1475 1.1400000000000001 0 0 -1.1475 -1.1400000000000001 0 0 -7.995 -1.1475 0 0 11.4225 1.1475 0 0 -2.2800000000000002z" fill="#000000" stroke-width="0.75"></path>
    <path d="M1.7175 0.5700000000000001h18.285v1.1475H1.7175Z" fill="#000000" stroke-width="0.75"></path>
    <path d="M1.7175 20.0025h18.285v1.1400000000000001H1.7175Z" fill="#000000" stroke-width="0.75"></path>
    <path d="M0.5700000000000001 1.7175h1.1475v18.285H0.5700000000000001Z" fill="#000000" stroke-width="0.75"></path>
  </g>
</svg>