<svg xmlns="http://www.w3.org/2000/svg" viewBox="0 0 24 24" id="Interface-Essential-Iris-Scan--Streamline-Pixel" height="24" width="24">
  <desc>
    Interface Essential Iris Scan Streamline Icon: https://streamlinehq.com
  </desc>
  <title>interface-essential-iris-scan</title>
  <g>
    <path d="M22.86 19.4325H24v3.4275h-1.1400000000000001Z" fill="#000000" stroke-width="0.75"></path>
    <path d="M22.86 10.290000000000001H24v3.4275h-1.1400000000000001Z" fill="#000000" stroke-width="0.75"></path>
    <path d="M22.86 1.1475H24V4.574999999999999h-1.1400000000000001Z" fill="#000000" stroke-width="0.75"></path>
    <path d="M21.7125 13.7175h1.1475v1.1400000000000001h-1.1475Z" fill="#000000" stroke-width="0.75"></path>
    <path d="M21.7125 9.1425h1.1475v1.1475h-1.1475Z" fill="#000000" stroke-width="0.75"></path>
    <path d="M19.4325 0h3.4275v1.1475h-3.4275Z" fill="#000000" stroke-width="0.75"></path>
    <path d="M19.4325 22.86h3.4275V24h-3.4275Z" fill="#000000" stroke-width="0.75"></path>
    <path d="M20.572499999999998 14.857499999999998h1.1400000000000001v1.1475h-1.1400000000000001Z" fill="#000000" stroke-width="0.75"></path>
    <path d="M20.572499999999998 8.0025h1.1400000000000001v1.1400000000000001h-1.1400000000000001Z" fill="#000000" stroke-width="0.75"></path>
    <path d="M18.285 16.005h2.2874999999999996v1.1400000000000001h-2.2874999999999996Z" fill="#000000" stroke-width="0.75"></path>
    <path d="M18.285 6.862500000000001h2.2874999999999996v1.1400000000000001h-2.2874999999999996Z" fill="#000000" stroke-width="0.75"></path>
    <path d="M16.005 17.145h2.2800000000000002v1.1400000000000001h-2.2800000000000002Z" fill="#000000" stroke-width="0.75"></path>
    <path d="M16.005 5.715h2.2800000000000002v1.1475h-2.2800000000000002Z" fill="#000000" stroke-width="0.75"></path>
    <path d="M16.005 9.1425h-1.1475v-1.1400000000000001h-1.1400000000000001V6.862500000000001h-3.4275v1.1400000000000001h-1.1475v1.1400000000000001h-1.1400000000000001v1.1475H6.862500000000001v3.4275h1.1400000000000001v1.1400000000000001h1.1400000000000001v1.1475h1.1475v1.1400000000000001h3.4275v-1.1400000000000001h1.1400000000000001v-1.1475h1.1475v-1.1400000000000001h1.1400000000000001v-3.4275h-1.1400000000000001Zm-2.2874999999999996 3.435h-1.1475v1.1400000000000001h-1.1400000000000001v-1.1400000000000001h-1.1400000000000001v-1.1475h1.1400000000000001v-1.1400000000000001h1.1400000000000001v1.1400000000000001h1.1475Z" fill="#000000" stroke-width="0.75"></path>
    <path d="M8.0025 18.285h8.0025v1.1475H8.0025Z" fill="#000000" stroke-width="0.75"></path>
    <path d="M8.0025 4.574999999999999h8.0025v1.1400000000000001H8.0025Z" fill="#000000" stroke-width="0.75"></path>
    <path d="M5.715 17.145h2.2874999999999996v1.1400000000000001H5.715Z" fill="#000000" stroke-width="0.75"></path>
    <path d="M5.715 5.715h2.2874999999999996v1.1475H5.715Z" fill="#000000" stroke-width="0.75"></path>
    <path d="M3.4275 16.005h2.2874999999999996v1.1400000000000001H3.4275Z" fill="#000000" stroke-width="0.75"></path>
    <path d="M3.4275 6.862500000000001h2.2874999999999996v1.1400000000000001H3.4275Z" fill="#000000" stroke-width="0.75"></path>
    <path d="M1.1475 22.86H4.574999999999999V24H1.1475Z" fill="#000000" stroke-width="0.75"></path>
    <path d="M2.2874999999999996 14.857499999999998h1.1400000000000001v1.1475H2.2874999999999996Z" fill="#000000" stroke-width="0.75"></path>
    <path d="M2.2874999999999996 8.0025h1.1400000000000001v1.1400000000000001H2.2874999999999996Z" fill="#000000" stroke-width="0.75"></path>
    <path d="M1.1475 0H4.574999999999999v1.1475H1.1475Z" fill="#000000" stroke-width="0.75"></path>
    <path d="M1.1475 13.7175h1.1400000000000001v1.1400000000000001H1.1475Z" fill="#000000" stroke-width="0.75"></path>
    <path d="M1.1475 9.1425h1.1400000000000001v1.1475H1.1475Z" fill="#000000" stroke-width="0.75"></path>
    <path d="M0 19.4325h1.1475v3.4275H0Z" fill="#000000" stroke-width="0.75"></path>
    <path d="M0 10.290000000000001h1.1475v3.4275H0Z" fill="#000000" stroke-width="0.75"></path>
    <path d="M0 1.1475h1.1475V4.574999999999999H0Z" fill="#000000" stroke-width="0.75"></path>
  </g>
</svg>