<svg xmlns="http://www.w3.org/2000/svg" viewBox="0 0 24 24" id="Video-Movies-Set-Equipment--Streamline-Pixel" height="24" width="24">
  <desc>
    Video Movies Set Equipment Streamline Icon: https://streamlinehq.com
  </desc>
  <title>video-movies-set-equipment</title>
  <g>
    <path d="M18.855 0v1.1400000000000001h2.2874999999999996v1.1475h1.1400000000000001v1.1400000000000001h-2.2800000000000002V2.2874999999999996h-1.1475V1.1400000000000001h-4.5675v1.1475h2.2800000000000002v1.1400000000000001h1.1475v1.1400000000000001h-2.2874999999999996V3.4275h-1.1400000000000001V2.2874999999999996h-4.574999999999999v1.1400000000000001H12v1.1400000000000001h1.1400000000000001v1.1475h-2.2800000000000002V4.5675h-1.1475V3.4275H5.1450000000000005v1.1400000000000001H7.425000000000001v1.1475h1.1475v1.1400000000000001H6.285V5.715H5.1450000000000005V4.5675H0.5700000000000001v18.285h1.1475V14.857499999999998h20.565v7.995h1.1475V10.2825H1.7175v-1.1400000000000001h3.4275v-1.1475h4.5675V6.855h4.574999999999999V5.715h4.5675V4.5675h4.574999999999999V0Zm0 12.57h1.1475v-1.1400000000000001h2.2800000000000002v1.1400000000000001h-1.1400000000000001v1.1400000000000001h-2.2874999999999996Zm-5.715 0h1.1475v-1.1400000000000001h2.2800000000000002v1.1400000000000001h-1.1400000000000001v1.1400000000000001h-2.2874999999999996Zm-5.715 0h1.1475v-1.1400000000000001h2.2874999999999996v1.1400000000000001h-1.1475v1.1400000000000001H7.425000000000001Zm-4.5675 0v-1.1400000000000001h2.2874999999999996v1.1400000000000001H3.9975v1.1400000000000001H1.7175v-1.1400000000000001Zm1.1400000000000001 -4.574999999999999H1.7175V5.715h1.1400000000000001v1.1400000000000001h1.1400000000000001Z" fill="#000000" stroke-width="0.75"></path>
    <path d="M1.7175 22.8525h20.565V24H1.7175Z" fill="#000000" stroke-width="0.75"></path>
    <path d="m20.0025 17.145 -1.1475 0 0 1.1400000000000001 -1.1400000000000001 0 0 -1.1400000000000001 -1.1475 0 0 1.1400000000000001 -1.1400000000000001 0 0 1.1400000000000001 1.1400000000000001 0 0 1.1475 1.1475 0 0 1.1400000000000001 1.1400000000000001 0 0 -1.1400000000000001 1.1475 0 0 -1.1475 1.1400000000000001 0 0 -1.1400000000000001 -1.1400000000000001 0 0 -1.1400000000000001z" fill="#000000" stroke-width="0.75"></path>
    <path d="M5.1450000000000005 19.424999999999997h7.995v1.1475H5.1450000000000005Z" fill="#000000" stroke-width="0.75"></path>
    <path d="M5.1450000000000005 17.145h7.995v1.1400000000000001H5.1450000000000005Z" fill="#000000" stroke-width="0.75"></path>
  </g>
</svg>